<?xml version="1.0" encoding="UTF-8" standalone="no"?>
<svg
   xmlns:dc="http://purl.org/dc/elements/1.1/"
   xmlns:cc="http://creativecommons.org/ns#"
   xmlns:rdf="http://www.w3.org/1999/02/22-rdf-syntax-ns#"
   xmlns:svg="http://www.w3.org/2000/svg"
   xmlns="http://www.w3.org/2000/svg"
   xmlns:sodipodi="http://sodipodi.sourceforge.net/DTD/sodipodi-0.dtd"
   xmlns:inkscape="http://www.inkscape.org/namespaces/inkscape"
   data-name="Layer 1"
   viewBox="0 0 128 160"
   x="0px"
   y="0px"
   version="1.1"
   id="svg5121"
   sodipodi:docname="icon-6.svg"
   inkscape:version="0.92.3 (unknown)">
  <metadata
     id="metadata5127">
    <rdf:RDF>
      <cc:Work
         rdf:about="">
        <dc:format>image/svg+xml</dc:format>
        <dc:type
           rdf:resource="http://purl.org/dc/dcmitype/StillImage" />
      </cc:Work>
    </rdf:RDF>
  </metadata>
  <defs
     id="defs5125" />
  <sodipodi:namedview
     pagecolor="#ffffff"
     bordercolor="#666666"
     borderopacity="1"
     objecttolerance="10"
     gridtolerance="10"
     guidetolerance="10"
     inkscape:pageopacity="0"
     inkscape:pageshadow="2"
     inkscape:window-width="1920"
     inkscape:window-height="1056"
     id="namedview5123"
     showgrid="false"
     inkscape:zoom="4.17193"
     inkscape:cx="33.423282"
     inkscape:cy="76.900165"
     inkscape:window-x="0"
     inkscape:window-y="24"
     inkscape:window-maximized="1"
     inkscape:current-layer="svg5121" />
  <title
     id="title5077">Miscellaneous 21 final</title>
  <path
     d="M 72.395099,0.47939443 H 57.406374 A 4.9962416,4.9962416 0 0 0 52.410133,5.475636 v 9.992483 H 44.0789 a 4.9962416,4.9962416 0 0 0 -4.996242,4.996241 v 4.996242 H 13.689261 A 4.9962416,4.9962416 0 0 0 8.6930198,30.456843 V 155.36288 a 4.9962416,4.9962416 0 0 0 4.9962412,4.99624 H 116.11221 a 4.9962416,4.9962416 0 0 0 4.99624,-4.99624 V 30.456843 a 4.9962416,4.9962416 0 0 0 -4.99624,-4.996241 H 90.718815 V 20.46436 A 4.9962416,4.9962416 0 0 0 85.722573,15.468119 H 77.391341 V 5.475636 A 4.9962416,4.9962416 0 0 0 72.395099,0.47939443 Z M 57.406374,5.475636 H 72.395099 V 25.460602 H 57.406374 Z M 90.718815,34.204025 V 30.456843 H 116.11221 V 155.36288 H 13.689261 V 30.456843 h 25.393397 v 3.747182 a 4.9962416,4.9962416 0 0 0 4.996242,4.996241 h 41.643673 a 4.9962416,4.9962416 0 0 0 4.996242,-4.996241 z M 85.722573,20.46436 V 34.204025 H 44.0789 V 20.46436 h 8.331233 v 4.996242 a 4.9962416,4.9962416 0 0 0 4.996241,4.996241 h 14.988725 a 4.9962416,4.9962416 0 0 0 4.996242,-4.996241 V 20.46436 Z"
     id="path5079"
     inkscape:connector-curvature="0"
     style="stroke-width:1.24906039" />
  <path
     d="M 74.89322,111.02124 H 54.908254 a 4.9962416,4.9962416 0 0 0 -4.996242,4.99624 v 13.73966 a 4.9962416,4.9962416 0 0 0 4.996242,4.99624 H 74.89322 a 4.9962416,4.9962416 0 0 0 4.996241,-4.99624 v -13.73966 a 4.9962416,4.9962416 0 0 0 -4.996241,-4.99624 z m -19.984966,18.7359 V 116.01748 H 74.89322 v 13.73966 z"
     id="path5081"
     inkscape:connector-curvature="0"
     style="stroke-width:1.24906039" />
  <path
     d="m 84.885703,60.434293 a 2.4981208,2.4981208 0 0 0 2.498121,2.498121 h 21.234026 a 2.498121,2.498121 0 0 0 0,-4.996242 H 87.383824 a 2.4981208,2.4981208 0 0 0 -2.498121,2.498121 z"
     id="path5083"
     inkscape:connector-curvature="0"
     style="stroke-width:1.24906039" />
  <path
     d="M 108.61785,86.664561 H 87.383824 a 2.498121,2.498121 0 0 0 0,4.996242 h 21.234026 a 2.498121,2.498121 0 0 0 0,-4.996242 z"
     id="path5085"
     inkscape:connector-curvature="0"
     style="stroke-width:1.24906039" />
  <path
     d="M 108.61785,115.39295 H 87.383824 a 2.4981208,2.4981208 0 0 0 0,4.99624 h 21.234026 a 2.4981208,2.4981208 0 0 0 0,-4.99624 z"
     id="path5087"
     inkscape:connector-curvature="0"
     style="stroke-width:1.24906039" />
  <path
     d="M 42.41765,57.936172 H 21.183623 a 2.498121,2.498121 0 0 0 0,4.996242 H 42.41765 a 2.498121,2.498121 0 0 0 0,-4.996242 z"
     id="path5089"
     inkscape:connector-curvature="0"
     style="stroke-width:1.24906039" />
  <path
     d="M 42.41765,86.664561 H 21.183623 a 2.498121,2.498121 0 0 0 0,4.996242 H 42.41765 a 2.498121,2.498121 0 0 0 0,-4.996242 z"
     id="path5091"
     inkscape:connector-curvature="0"
     style="stroke-width:1.24906039" />
  <path
     d="m 87.383824,72.924897 h 12.490604 a 2.498121,2.498121 0 0 0 0,-4.996242 H 87.383824 a 2.498121,2.498121 0 0 0 0,4.996242 z"
     id="path5093"
     inkscape:connector-curvature="0"
     style="stroke-width:1.24906039" />
  <path
     d="m 87.383824,101.65329 h 12.490604 a 2.498123,2.498123 0 0 0 0,-4.996246 H 87.383824 a 2.498123,2.498123 0 0 0 0,4.996246 z"
     id="path5095"
     inkscape:connector-curvature="0"
     style="stroke-width:1.24906039" />
  <path
     d="M 99.874428,125.38543 H 87.383824 a 2.4981208,2.4981208 0 0 0 0,4.99624 h 12.490604 a 2.4981208,2.4981208 0 0 0 0,-4.99624 z"
     id="path5097"
     inkscape:connector-curvature="0"
     style="stroke-width:1.24906039" />
  <path
     d="m 21.183623,72.924897 h 13.739664 a 2.498121,2.498121 0 0 0 0,-4.996242 H 21.183623 a 2.498121,2.498121 0 0 0 0,4.996242 z"
     id="path5099"
     inkscape:connector-curvature="0"
     style="stroke-width:1.24906039" />
  <path
     d="m 21.183623,101.65329 h 13.739664 a 2.498123,2.498123 0 0 0 0,-4.996246 H 21.183623 a 2.498123,2.498123 0 0 0 0,4.996246 z"
     id="path5101"
     inkscape:connector-curvature="0"
     style="stroke-width:1.24906039" />
  <path
     d="M 42.41765,115.39295 H 21.183623 a 2.4981208,2.4981208 0 0 0 0,4.99624 H 42.41765 a 2.4981208,2.4981208 0 0 0 0,-4.99624 z"
     id="path5103"
     inkscape:connector-curvature="0"
     style="stroke-width:1.24906039" />
  <path
     d="M 34.923287,125.38543 H 21.183623 a 2.4981208,2.4981208 0 0 0 0,4.99624 h 13.739664 a 2.4981208,2.4981208 0 0 0 0,-4.99624 z"
     id="path5105"
     inkscape:connector-curvature="0"
     style="stroke-width:1.24906039" />
  <path
     d="m 79.45229,51.091321 -3.010235,2.747933 A 4.9962416,4.9962416 0 0 0 74.89322,53.564461 H 54.908254 a 4.9962416,4.9962416 0 0 0 -4.996242,4.996241 v 13.739665 a 4.9962416,4.9962416 0 0 0 4.996242,4.996241 H 74.89322 a 4.9962416,4.9962416 0 0 0 4.996241,-4.996241 V 58.560702 a 4.9962416,4.9962416 0 0 0 -0.09992,-1.011739 L 82.824753,54.78854 A 2.5206583,2.5206583 0 1 0 79.45229,51.041359 Z M 54.908254,72.300367 V 58.560702 h 16.3502 l -6.245302,5.708206 -1.87359,-2.398196 a 2.4999471,2.4999471 0 0 0 -3.934541,3.085179 L 62.739862,69.465 a 2.4981208,2.4981208 0 0 0 1.761175,0.949285 h 0.212341 a 2.4981208,2.4981208 0 0 0 1.686231,-0.649511 l 8.493611,-7.756665 v 10.292258 z"
     id="path5107"
     inkscape:connector-curvature="0"
     style="stroke-width:1.24906039" />
  <path
     d="m 79.45229,79.81971 -3.010235,2.747933 A 4.9962416,4.9962416 0 0 0 74.89322,82.29285 H 54.908254 a 4.9962416,4.9962416 0 0 0 -4.996242,4.996241 v 13.739669 a 4.9962416,4.9962416 0 0 0 4.996242,4.99624 H 74.89322 a 4.9962416,4.9962416 0 0 0 4.996241,-4.99624 V 87.289091 a 4.9962416,4.9962416 0 0 0 -0.09992,-1.011739 l 3.035216,-2.760423 A 2.5206596,2.5206596 0 1 0 79.45229,79.769748 Z M 54.908254,101.02876 V 87.289091 h 16.3502 l -6.245302,5.708206 -1.87359,-2.398196 a 2.4999474,2.4999474 0 0 0 -3.934541,3.08518 l 3.534841,4.509108 a 2.4981208,2.4981208 0 0 0 1.761175,0.949286 h 0.212341 a 2.4981208,2.4981208 0 0 0 1.686231,-0.649512 l 8.493611,-7.756665 v 10.292262 z"
     id="path5109"
     inkscape:connector-curvature="0"
     style="stroke-width:1.24906039" />
  <circle
     cx="54.908253"
     cy="147.86852"
     r="2.4981208"
     id="circle5111"
     style="stroke-width:1.24906039" />
  <circle
     cx="64.900734"
     cy="147.86852"
     r="2.4981208"
     id="circle5113"
     style="stroke-width:1.24906039" />
  <circle
     cx="74.893219"
     cy="147.86852"
     r="2.4981208"
     id="circle5115"
     style="stroke-width:1.24906039" />
</svg>
