<?xml version="1.0" encoding="UTF-8" standalone="no"?>
<svg
   xmlns:dc="http://purl.org/dc/elements/1.1/"
   xmlns:cc="http://creativecommons.org/ns#"
   xmlns:rdf="http://www.w3.org/1999/02/22-rdf-syntax-ns#"
   xmlns:svg="http://www.w3.org/2000/svg"
   xmlns="http://www.w3.org/2000/svg"
   xmlns:sodipodi="http://sodipodi.sourceforge.net/DTD/sodipodi-0.dtd"
   xmlns:inkscape="http://www.inkscape.org/namespaces/inkscape"
   version="1.1"
   x="0px"
   y="0px"
   viewBox="0 0 100 125"
   enable-background="new 0 0 100 100"
   xml:space="preserve"
   id="svg7216"
   sodipodi:docname="icon-3.svg"
   inkscape:version="0.92.3 (unknown)"><metadata
     id="metadata7222"><rdf:RDF><cc:Work
         rdf:about=""><dc:format>image/svg+xml</dc:format><dc:type
           rdf:resource="http://purl.org/dc/dcmitype/StillImage" /></cc:Work></rdf:RDF></metadata><defs
     id="defs7220" /><sodipodi:namedview
     pagecolor="#ffffff"
     bordercolor="#666666"
     borderopacity="1"
     objecttolerance="10"
     gridtolerance="10"
     guidetolerance="10"
     inkscape:pageopacity="0"
     inkscape:pageshadow="2"
     inkscape:window-width="1920"
     inkscape:window-height="1056"
     id="namedview7218"
     showgrid="false"
     inkscape:zoom="1.888"
     inkscape:cx="-11.705508"
     inkscape:cy="62.5"
     inkscape:window-x="0"
     inkscape:window-y="24"
     inkscape:window-maximized="1"
     inkscape:current-layer="svg7216" /><path
     d="m 81.833016,24.721085 c -1.639,-5.632 -5.479,-11.338 -10.535,-15.6490003 -4.302,-3.669 -11.535,-8.042 -21.561,-8.042 -8.412,0 -17.009,3.516 -23.584,9.6440003 -6.644999,6.194 -10.454999,14.351 -10.454999,22.38 0,7.512 2.377,14.963 6.873,21.541 2.366999,3.467 4.739999,5.85 6.007999,7.012 v 13.904 c 0,1.204 0.867,2.234 2.053,2.439 l 29.379,5.094 c 0.143,0.024 0.283,0.037 0.426,0.037 0.576,0 1.143,-0.203 1.594,-0.581 0.559,-0.471 0.881,-1.165 0.881,-1.895 v -12.444 l 14.654,-0.879 c 1.318,-0.078 2.338,-1.174 2.328,-2.495 l -0.146,-16.096 h 5.82 c 0.781,0 1.52,-0.369 1.985,-0.996 0.466,-0.625 0.612,-1.433 0.391,-2.183 -0.035,-0.117 -3.426,-11.565 -6.111,-20.791 z m -19.075,2.273 c -1.819,2.078 -3.633,4.163 -5.444,6.252 -4.822,5.547 -9.647,11.094 -14.467,16.641 -0.104,0.117 -0.203,0.244 -0.311,0.349 -0.521,0.574 -1.139,0.688 -1.656,0.32 -0.625,-0.459 -0.524,-1.003 -0.191,-1.582 1.801,-3.149 3.594,-6.296 5.393,-9.443 1.406,-2.476 2.803,-4.951 4.229,-7.407 0.277,-0.483 0.231,-0.588 -0.335,-0.605 -2.973,-0.083 -5.938,-0.203 -8.911,-0.308 -0.207,-0.01 -0.415,-0.01 -0.625,-0.032 -1.035,-0.12 -1.404,-0.854 -0.888,-1.768 2.269,-3.992 4.538,-7.983 6.813,-11.968 1.042,-1.838 2.109,-3.655 3.127,-5.503 0.398,-0.725 0.926,-0.935 1.685,-0.718 1.204,0.354 2.409,0.688 3.616,1.038 1.205,0.342 2.412,0.671 3.61,1.04 1.12,0.342 1.331,0.981 0.647,1.917 -2.158,2.944 -4.322,5.881 -6.471,8.828 -0.137,0.19 -0.456,0.378 -0.303,0.652 0.117,0.21 0.426,0.12 0.657,0.125 2.815,0.103 5.63,0.208 8.44,0.305 0.207,0.015 0.414,0.017 0.625,0.034 0.479,0.034 0.85,0.249 1.045,0.698 0.196,0.439 0.011,0.798 -0.285,1.135 z"
     id="path7210"
     inkscape:connector-curvature="0" /></svg>