<?xml version="1.0" encoding="UTF-8" standalone="no"?>
<svg
   xmlns:dc="http://purl.org/dc/elements/1.1/"
   xmlns:cc="http://creativecommons.org/ns#"
   xmlns:rdf="http://www.w3.org/1999/02/22-rdf-syntax-ns#"
   xmlns:svg="http://www.w3.org/2000/svg"
   xmlns="http://www.w3.org/2000/svg"
   xmlns:sodipodi="http://sodipodi.sourceforge.net/DTD/sodipodi-0.dtd"
   xmlns:inkscape="http://www.inkscape.org/namespaces/inkscape"
   version="1.1"
   x="0px"
   y="0px"
   viewBox="0 0 96 120"
   enable-background="new 0 0 96 96"
   xml:space="preserve"
   id="svg5769"
   sodipodi:docname="icon-5.svg"
   inkscape:version="0.92.3 (unknown)"><metadata
     id="metadata5775"><rdf:RDF><cc:Work
         rdf:about=""><dc:format>image/svg+xml</dc:format><dc:type
           rdf:resource="http://purl.org/dc/dcmitype/StillImage" /></cc:Work></rdf:RDF></metadata><defs
     id="defs5773" /><sodipodi:namedview
     pagecolor="#ffffff"
     bordercolor="#666666"
     borderopacity="1"
     objecttolerance="10"
     gridtolerance="10"
     guidetolerance="10"
     inkscape:pageopacity="0"
     inkscape:pageshadow="2"
     inkscape:window-width="1920"
     inkscape:window-height="1056"
     id="namedview5771"
     showgrid="false"
     inkscape:zoom="7.8666667"
     inkscape:cx="32.44962"
     inkscape:cy="65.155124"
     inkscape:window-x="0"
     inkscape:window-y="24"
     inkscape:window-maximized="1"
     inkscape:current-layer="svg5769" /><path
     d="M73.106,33.321c1.374-1.182,2.177-2.907,2.177-4.735c0-3.446-2.804-6.25-6.25-6.25c-1.457,0-2.836,0.497-3.95,1.411  c-5.2-4.052-11.657-6.275-18.257-6.275c-4.053,0-8.002,0.822-11.75,2.445c-1.114-1.892-3.152-3.08-5.381-3.08  c-3.446,0-6.249,2.803-6.249,6.249c0,1.495,0.525,2.901,1.492,4.03c-4.807,5.234-7.56,11.966-7.798,19.076  c-1.965,1.098-3.211,3.188-3.211,5.447c0,3.041,2.179,5.595,5.142,6.123c2.767,7.261,8.333,13.215,15.375,16.451  c0.083,3.375,2.853,6.094,6.247,6.094c2.37,0,4.497-1.321,5.56-3.408c0.19,0.013,0.381,0.024,0.574,0.024  c7.718,0,15.003-2.935,20.567-8.274c0.558,0.159,1.098,0.237,1.64,0.237c3.446,0,6.25-2.803,6.25-6.249  c0-1.313-0.412-2.561-1.195-3.636c1.635-3.764,2.463-7.732,2.463-11.804C76.552,42.37,75.363,37.586,73.106,33.321z M39.332,29.777  c-1.73-0.664-3.68,0.201-4.346,1.931l-1.399-0.539c0.962-2.501,3.781-3.754,6.284-2.792c2.503,0.964,3.754,3.784,2.791,6.285  l-1.399-0.539C41.928,32.394,41.063,30.444,39.332,29.777z M34.823,59.606c-1.045-0.402-2.185-0.374-3.209,0.081  s-1.81,1.281-2.213,2.326l-1.399-0.539c0.546-1.419,1.613-2.541,3.003-3.158c1.392-0.618,2.938-0.657,4.357-0.109  c2.93,1.128,4.396,4.43,3.268,7.359l-1.399-0.539C38.061,62.869,36.981,60.438,34.823,59.606z M29.647,37.324  c2.412,0,4.374,1.962,4.374,4.374s-1.962,4.374-4.374,4.374s-4.374-1.962-4.374-4.374S27.235,37.324,29.647,37.324z M42.992,47.891  c0.725,0.788,1.714,1.246,2.784,1.29c1.069,0.044,2.093-0.331,2.88-1.057c0.788-0.726,1.246-1.715,1.29-2.785  s-0.331-2.093-1.057-2.88l1.104-1.017c0.997,1.083,1.513,2.488,1.453,3.958s-0.69,2.829-1.772,3.827  c-1.025,0.944-2.34,1.457-3.727,1.458c-0.077,0-0.154-0.002-0.231-0.005c-1.471-0.061-2.829-0.69-3.826-1.772L42.992,47.891z   M61.472,49.211c0-2.385,1.941-4.326,4.326-4.326s4.326,1.94,4.326,4.326s-1.941,4.326-4.326,4.326S61.472,51.597,61.472,49.211z   M51.669,29.995c0-1.8,1.465-3.265,3.266-3.265s3.266,1.465,3.266,3.265c0,1.801-1.465,3.267-3.266,3.267  S51.669,31.796,51.669,29.995z M56.577,63.585c0,1.805-1.469,3.273-3.274,3.273s-3.275-1.468-3.275-3.273  c0-1.806,1.469-3.275,3.275-3.275S56.577,61.78,56.577,63.585z"
     id="path5751" /><path
     d="M87.012,44.974c-2.337,0-4.239,1.901-4.239,4.238s1.902,4.238,4.239,4.238c2.337,0,4.238-1.901,4.238-4.238  S89.349,44.974,87.012,44.974z"
     id="path5753" /><path
     d="M57.381,15.883c2.256,0,4.091-1.834,4.091-4.089c0-2.256-1.835-4.091-4.091-4.091c-2.255,0-4.09,1.835-4.09,4.091  C53.291,14.049,55.126,15.883,57.381,15.883z"
     id="path5755" /><path
     d="M32.042,80.116c-2.255,0-4.09,1.835-4.09,4.091s1.835,4.091,4.09,4.091c2.256,0,4.091-1.835,4.091-4.091  S34.297,80.116,32.042,80.116z"
     id="path5757" /><path
     d="M13.759,30.069c2.256,0,4.091-1.834,4.091-4.089c0-2.256-1.835-4.091-4.091-4.091c-2.255,0-4.09,1.835-4.09,4.091  C9.668,28.234,11.503,30.069,13.759,30.069z"
     id="path5759" /><path
     d="M11.949,60.102c1.498,1.625,1.394,4.167-0.232,5.666c-0.788,0.726-1.801,1.108-2.88,1.057  c-1.07-0.044-2.059-0.502-2.784-1.29l-1.104,1.017c0.997,1.083,2.356,1.712,3.826,1.772c0.078,0.003,0.155,0.005,0.231,0.005  c1.386,0,2.702-0.513,3.727-1.458c2.234-2.059,2.377-5.551,0.319-7.785L11.949,60.102z"
     id="path5761" /><path
     d="M71.383,74.85c-2.502-0.961-5.322,0.291-6.284,2.792l1.399,0.539c0.667-1.729,2.616-2.596,4.346-1.931  c1.73,0.667,2.596,2.617,1.93,4.347l1.399,0.539C75.137,78.634,73.885,75.814,71.383,74.85z"
     id="path5763" /></svg>